<svg version="1.1" xmlns="http://www.w3.org/2000/svg" xmlns:xlink="http://www.w3.org/1999/xlink" width="400" height="400">
	<style>path { fill: #fff; } @media (prefers-color-scheme: light) { path { fill: #000; } }</style>
	<g id="logo">
		<path id="path0" d="M163.026 60.044 C 159.740 60.223,153.350 60.923,148.826 61.600 C 144.302 62.278,138.819 63.098,136.643 63.422 C 134.467 63.747,131.857 64.380,130.843 64.829 C 129.829 65.278,127.126 66.088,124.836 66.629 C 122.547 67.170,120.086 67.976,119.368 68.420 C 118.650 68.863,116.750 69.673,115.145 70.219 C 113.540 70.765,111.591 71.647,110.813 72.180 C 110.036 72.713,108.410 73.534,107.200 74.005 C 105.990 74.475,104.640 75.190,104.200 75.592 C 103.760 75.995,102.564 76.837,101.542 77.462 C 94.876 81.543,86.774 89.671,81.389 97.681 C 80.397 99.155,79.405 100.473,79.184 100.610 C 78.963 100.746,78.221 101.970,77.535 103.329 C 76.849 104.688,75.891 106.340,75.406 107.000 C 74.921 107.660,74.122 109.220,73.629 110.467 C 73.137 111.714,72.304 113.317,71.778 114.029 C 71.253 114.741,70.526 116.241,70.163 117.362 C 69.800 118.483,69.008 120.300,68.402 121.400 C 67.797 122.500,66.914 124.702,66.441 126.293 C 65.968 127.884,65.226 129.788,64.793 130.523 C 63.509 132.699,63.334 135.235,64.401 136.201 C 65.649 137.330,348.533 137.698,351.505 136.575 C 354.122 135.585,353.993 137.534,354.024 98.726 C 354.055 60.036,354.118 61.143,351.815 60.181 C 350.249 59.526,174.866 59.399,163.026 60.044 M63.836 166.431 L 62.800 167.661 62.800 177.572 C 62.800 187.237,62.823 187.515,63.716 188.841 L 64.632 190.200 207.216 190.400 C 363.222 190.619,351.251 190.777,353.338 188.469 C 354.441 187.249,354.522 168.440,353.429 167.233 C 351.452 165.047,362.427 165.200,207.475 165.200 L 64.871 165.200 63.836 166.431 M65.911 218.287 C 62.959 218.604,62.800 219.192,62.801 229.754 C 62.803 240.217,63.040 241.228,65.609 241.742 C 68.039 242.228,191.082 242.041,193.039 241.548 C 195.936 240.819,196.033 240.407,195.907 229.349 L 195.800 219.886 194.671 219.043 L 193.542 218.200 130.471 218.164 C 95.782 218.144,66.730 218.199,65.911 218.287 M64.921 269.602 C 62.907 270.420,62.731 271.593,62.886 283.136 C 63.032 294.048,63.142 294.927,64.447 295.625 C 65.282 296.072,191.101 296.205,193.463 295.762 C 195.693 295.343,195.787 294.869,195.933 283.200 C 196.075 271.964,195.889 270.640,194.050 269.723 C 193.148 269.274,66.022 269.154,64.921 269.602 M63.970 323.432 L 63.000 324.463 62.872 335.332 C 62.722 348.138,62.865 348.691,66.499 349.300 C 69.064 349.730,193.219 349.488,194.115 349.052 C 195.756 348.251,195.937 347.023,196.009 336.178 C 196.083 325.133,195.904 323.685,194.372 322.906 C 193.613 322.520,179.344 322.411,129.170 322.406 L 64.939 322.400 63.970 323.432 " stroke="none" fill-rule="evenodd"/>
	</g>
</svg>