<svg width="192" height="108" viewBox="0 0 3350 1080" version="1.1"
  xmlns="http://www.w3.org/2000/svg"
  xmlns:xlink="http://www.w3.org/1999/xlink">
  <rect id="backdrop" width="3350" height="1080" stroke="none" fill="#ffffff" />
  <g id="title" transform="matrix(0.54901008,0,0,0.54901008,940.3687,195.6928)">
    <path id="text0"
      d="M4.2548 0 V552.9587 H106.3988 V327.9338 H433.5677 V225.0213 H106.3988 V 102.144 H 513.438 V 0 Z M 663.1996 0 C 643.7437 0 625.8221 4.8615 609.4381 14.5894 C 593.5662 24.3174 580.7661 37.3739 571.0381 53.7579 C 561.3101 69.6299 556.4451 87.295 556.4451 106.751 V 446.2077 C 556.4451 465.6636 561.3101 483.5816 571.0381 499.9656 C 580.7661 515.8376 593.5662 528.6377 609.4381 538.3657 C 625.8221 548.0937 643.7437 552.9587 663.1996 552.9587 H 1002.6563 C 1022.1123 552.9587 1039.7738 548.0937 1055.6458 538.3657 C 1072.0298 528.6377 1085.0863 515.8376 1094.8143 499.9656 C 1104.5423 483.5816 1109.4073 465.6636 1109.4073 446.2077 V 106.751 C 1109.4073 87.295 1104.5423 69.6299 1094.8143 53.7579 C 1085.0863 37.3739 1072.0298 24.3174 1055.6458 14.5894 C 1039.7738 4.8615 1022.1123 0 1002.6563 0 Z M 1160.86 0 V 28.414 L 1368.9901 276.4776 L 1160.86 524.5411 V 552.9587 H 1270.6847 L 1435.8042 357.1198 L 1600.9238 552.9587 H 1711.5169 V 523.7726 L 1502.6219 276.4776 L1711.5169 28.414 V0 H1600.9238 L 1436.5727 196.6073 L 1270.6847 0 Z M 1772.9592 0 V 552.9587 H 2218.3984 C2237.8544 552.9587 2255.7724 548.0937 2272.1564 538.3657 C 2288.5403 528.6377 2301.5968 515.8376 2311.3248 499.9656 C2321.0528 483.5816 2325.9179 465.6636 2325.9179 446.2077 V 327.1653 C 2325.9179 314.3654 2323.1007 301.5653 2317.4687 288.7653 C 2312.3487 275.9653 2305.4394 263.6781 2296.7354 251.9021 C 2299.2954 246.2701 2301.0868 240.3829 2302.1108 234.2389 C 2303.1348 228.0949 2303.6441 221.6949 2303.6441 215.0389 V 106.751 C 2303.6441 87.295 2298.7827 69.6299 2289.0547 53.7579 C 2279.3267 37.3739 2266.2702 24.3174 2249.8862 14.5894 C 2234.0142 4.8615 2216.3491 0 2196.8931 0 Z M 2517.9181 0 C 2498.4622 0 2480.5406 4.8615 2464.1566 14.5894 C 2448.2847 24.3174 2435.4846 37.3739 2425.7566 53.7579 C 2416.0286 69.6299 2411.1671 87.295 2411.1671 106.751 V 552.9587 H 2512.5427 V 367.1023 H 2861.9818 V 552.9587 H 2964.1258 V 106.751 C 2964.1258 87.295 2959.2608 69.6299 2949.5328 53.7579 C 2939.8048 37.3739 2926.7519 24.3174 2910.3679 14.5894 C 2893.9839 4.8615 2876.0624 0 2856.6064 0 Z M 3024.0312 0 V 102.144 H 3249.821 V 552.9587 H3351.965 V 102.144 H 3576.9899 V 0 Z M 667.0382 102.144 H 997.2773 C 999.8373 102.144 1002.1416 103.1661 1004.1896 105.2141 C 1006.2376 106.7501 1007.2633 108.798 1007.2633 111.358 V 441.5971 C 1007.2633 444.1571 1006.2376 446.4614 1004.1896 448.5094 C 1002.1416 450.0454 999.8373 450.8147 997.2773 450.8147 H 667.0382 C 664.4782 450.8147 662.1739 450.0454 660.1259 448.5094 C 658.5899 446.4614 657.8242 444.1571 657.8242 441.5971 V 111.358 C 657.8242 108.798 658.5899 106.7502 660.1259 105.2141 C 662.1739 103.1661 664.4782 102.144 667.0382 102.144 Z M 1883.5488 102.144 H 2192.2861 C 2194.8461 102.144 2196.894 103.1661 2198.43 105.2141 C 2199.9659 106.7501 2200.7352 108.798 2200.7352 111.358 V 211.1967 C 2200.7352 213.7567 2199.966 216.061 2198.43 218.109 C 2196.894 219.645 2194.8461 220.4143 2192.2861 220.4143 H 1883.5488 C 1880.9888 220.4143 1878.6845 219.645 1876.6365 218.109 C 1875.1005 216.061 1874.3347 213.7567 1874.3347 211.1967 V 111.358 C 1874.3347 108.798 1875.1005 106.7502 1876.6365 105.2141 C 1878.6845 103.1661 1880.9888 102.144 1883.5488 102.144 Z M 2521.7567 102.144 H 2851.9994 C 2854.5593 102.144 2856.8637 103.1661 2858.9117 105.2141 C 2860.9597 106.7501 2861.9818 108.798 2861.9818 111.358 V 265.7267 H 2512.5427 V 111.358 C 2512.5427 108.798 2513.3084 106.7502 2514.8444 105.2141 C 2516.8924 103.1661 2519.1967 102.144 2521.7567 102.144 Z M 1883.5488 322.5583 H 2213.7914 C 2216.3514 322.5583 2218.6521 323.584 2220.7001 325.632 C 2222.7481 327.168 2223.7739 329.2159 2223.7739 331.7759 V 441.5971 C 2223.7739 444.1571 2222.7481 446.4614 2220.7001 448.5094 C 2218.6521 450.0454 2216.3514 450.8147 2213.7914 450.8147 H 1883.5488 C 1880.9888 450.8147 1878.6845 450.0454 1876.6365 448.5094 C 1875.1005 446.4614 1874.3347 444.1571 1874.3347 441.5971 V 331.7759 C 1874.3347 329.2159 1875.1005 327.168 1876.6365 325.632 C 1878.6845 323.584 1880.9888 322.5583 1883.5488 322.5583 Z M 92.158 694.8617 C 75.262 694.8617 59.6483 698.9575 45.3123 707.1495 C 31.4884 715.3414 20.4797 726.6065 12.2877 740.9425 C 4.0957 754.7665 0 770.1273 0 787.0233 V 910.6691 C 0 927.565 4.0957 942.9258 12.2877 956.7498 C 20.4797 970.5738 31.4884 981.8389 45.3123 990.5429 C 59.6483 998.7349 75.262 1002.8306 92.158 1002.8306 H 460.8007 C 468.9927 1002.8306 475.902 1005.6478 481.534 1011.2798 C 487.678 1016.9117 490.7516 1023.8211 490.7516 1032.0131 V 1155.6624 C 490.7516 1163.8544 487.678 1171.0237 481.534 1177.1677 C 475.902 1182.7997 468.9927 1185.6133 460.8007 1185.6133 H 92.158 C 83.966 1185.6133 76.8002 1182.7997 70.6562 1177.1677 C 65.0242 1171.0237 62.2071 1163.8544 62.2071 1155.6624 V 1134.1571 H 0 V 1155.6624 C 0 1172.5584 4.0957 1188.1756 12.2877 1202.5116 C 20.4797 1216.3356 31.4884 1227.3407 45.3123 1235.5327 C 59.6483 1243.7247 75.262 1247.8204 92.158 1247.8204 H 460.8007 C 477.6967 1247.8204 493.0539 1243.7247 506.8779 1235.5327 C 521.2139 1227.3407 532.479 1216.3356 540.6709 1202.5116 C 548.8629 1188.1756 552.9587 1172.5584 552.9587 1155.6624 V 1032.0131 C 552.9587 1015.1171 548.8629 999.7563 540.6709 985.9323 C 532.479 972.1083 521.2139 961.1032 506.8779 952.9112 C 493.0539 944.2073 477.6967 939.8551 460.8007 939.8551 H 92.158 C 83.966 939.8551 76.8002 937.0379 70.6562 931.4059 C 65.0242 925.7739 62.2071 918.861 62.2071 910.6691 V 787.0233 C 62.2071 778.8313 65.0242 771.9184 70.6562 766.2864 C 76.8002 760.1424 83.966 757.0688 92.158 757.0688 H 460.8007 C 468.9927 757.0688 475.902 760.1424 481.534 766.2864 C 487.678 771.9184 490.7516 778.8313 490.7516 787.0233 V 808.525 H 552.9587 V 787.0233 C 552.9587 770.1273 548.8629 754.7665 540.6709 740.9425 C 532.479 726.6065 521.2139 715.3414 506.8779 707.1495 C 493.0539 698.9575 477.6967 694.8617 460.8007 694.8617 Z M 609.0219 694.8617 L 863.2328 1039.6938 V 1247.8204 H 925.4399 V 1039.6938 L 1179.6473 694.8617 H 1106.6858 L 894.7206 965.199 L 680.4466 694.8617 Z M 1307.9037 694.8617 C 1291.0077 694.8617 1275.3904 698.9575 1261.0545 707.1495 C 1247.2305 715.3414 1236.2218 726.6065 1228.0298 740.9425 C 1219.8378 754.7665 1215.7421 770.1273 1215.7421 787.0233 V 910.6691 C 1215.7421 927.565 1219.8378 942.9258 1228.0298 956.7498 C 1236.2218 970.5738 1247.2305 981.8389 1261.0545 990.5429 C 1275.3904 998.7349 1291.0077 1002.8306 1307.9037 1002.8306 H 1676.5428 C 1684.7348 1002.8306 1691.6477 1005.6478 1697.2797 1011.2798 C 1703.4237 1016.9117 1706.4937 1023.8211 1706.4937 1032.0131 V 1155.6624 C 1706.4937 1163.8544 1703.4237 1171.0237 1697.2797 1177.1677 C 1691.6477 1182.7997 1684.7348 1185.6133 1676.5428 1185.6133 H 1307.9037 C 1299.7117 1185.6133 1292.5423 1182.7997 1286.3984 1177.1677 C 1280.7664 1171.0237 1277.9528 1163.8544 1277.9528 1155.6624 V 1134.1571 H 1215.7421 V 1155.6624 C 1215.7421 1172.5584 1219.8378 1188.1756 1228.0298 1202.5116 C 1236.2218 1216.3356 1247.2305 1227.3407 1261.0545 1235.5327 C 1275.3904 1243.7247 1291.0077 1247.8204 1307.9037 1247.8204 H 1676.5428 C 1693.4388 1247.8204 1708.7996 1243.7247 1722.6236 1235.5327 C 1736.9596 1227.3407 1748.2246 1216.3356 1756.4166 1202.5116 C 1764.6086 1188.1756 1768.7044 1172.5584 1768.7044 1155.6624 V 1032.0131 C 1768.7044 1015.1171 1764.6086 999.7563 1756.4166 985.9323 C 1748.2246 972.1083 1736.9596 961.1032 1722.6236 952.9112 C 1708.7996 944.2073 1693.4388 939.8551 1676.5428 939.8551 H 1307.9037 C 1299.7117 939.8551 1292.5423 937.0379 1286.3984 931.4059 C 1280.7664 925.7739 1277.9528 918.861 1277.9528 910.6691 V 787.0233 C 1277.9528 778.8313 1280.7664 771.9184 1286.3984 766.2864 C 1292.5423 760.1424 1299.7117 757.0688 1307.9037 757.0688 H 1676.5428 C 1684.7348 757.0688 1691.6477 760.1424 1697.2797 766.2864 C 1703.4237 771.9184 1706.4937 778.8313 1706.4937 787.0233 V 808.525 H 1768.7044 V 787.0233 C 1768.7044 770.1273 1764.6086 754.7665 1756.4166 740.9425 C 1748.2246 726.6065 1736.9596 715.3414 1722.6236 707.1495 C 1708.7996 698.9575 1693.4388 694.8617 1676.5428 694.8617 Z M 1823.2307 694.8617 V 757.0688 H 2068.9925 V 1247.8204 H 2131.1996 V 757.0688 H 2376.193 V 694.8617 Z M 2435.3264 694.8617 V 1247.8204 H 2939.9025 V 1185.6133 H 2497.537 V 1002.8306 H 2853.12 V 939.8551 H 2497.537 V 757.0688 H 2939.9025 V 694.8617 Z M 2999.8079 694.8617 V 1247.8204 H 3062.0186 V 765.518 L 3314.6891 1065.8061 L 3567.3596 765.518 V 1247.8204 H 3629.5703 V 694.8617 H 3544.321 L 3314.6891 968.2691 L 3085.0572 694.8617 Z M 3800.8337 694.8617 C 3783.9377 694.8617 3768.3205 698.9575 3753.9845 707.1495 C 3740.1605 715.3414 3729.1518 726.6065 3720.9598 740.9425 C 3712.7679 754.7665 3708.6721 770.1273 3708.6721 787.0233 V 910.6691 C 3708.6721 927.565 3712.7679 942.9258 3720.9598 956.7498 C 3729.1518 970.5738 3740.1605 981.8389 3753.9845 990.5429 C 3768.3205 998.7349 3783.9377 1002.8306 3800.8337 1002.8306 H 4169.4728 C 4177.6648 1002.8306 4184.5777 1005.6478 4190.2097 1011.2798 C 4196.3537 1016.9117 4199.4237 1023.8211 4199.4237 1032.0131 V 1155.6624 C 4199.4237 1163.8544 4196.3537 1171.0237 4190.2097 1177.1677 C 4184.5777 1182.7997 4177.6648 1185.6133 4169.4728 1185.6133 H 3800.8337 C 3792.6417 1185.6133 3785.4724 1182.7997 3779.3284 1177.1677 C 3773.6964 1171.0237 3770.8792 1163.8544 3770.8792 1155.6624 V 1134.1571 H 3708.6721 V 1155.6624 C 3708.6721 1172.5584 3712.7679 1188.1756 3720.9599 1202.5116 C 3729.1519 1216.3356 3740.1605 1227.3407 3753.9845 1235.5327 C 3768.3205 1243.7247 3783.9377 1247.8204 3800.8337 1247.8204 H 4169.4728 C 4186.3688 1247.8204 4201.7296 1243.7247 4215.5536 1235.5327 C 4229.8896 1227.3407 4241.1511 1216.3356 4249.3431 1202.5116 C 4257.5351 1188.1756 4261.6344 1172.5584 4261.6344 1155.6624 V 1032.0131 C 4261.6344 1015.1171 4257.5351 999.7563 4249.3431 985.9323 C 4241.1511 972.1083 4229.8896 961.1032 4215.5536 952.9112 C 4201.7296 944.2073 4186.3688 939.8551 4169.4728 939.8551 H 3800.8337 C 3792.6417 939.8551 3785.4724 937.0379 3779.3284 931.4059 C 3773.6964 925.7739 3770.8792 918.861 3770.8792 910.6691 V 787.0233 C 3770.8792 778.8313 3773.6964 771.9184 3779.3284 766.2864 C 3785.4724 760.1424 3792.6417 757.0688 3800.8337 757.0688 H 4169.4728 C 4177.6648 757.0688 4184.5777 760.1424 4190.2097 766.2864 C4196.3537 771.9184 4199.4237 778.8313 4199.4237 787.0233 V808.525 H4261.6344 V787.0233 C4261.6344 770.1273 4257.5351 754.7665 4249.3431 740.9425 C4241.1511 726.6065 4229.8896 715.3414 4215.5536 707.1495 C4201.7296 698.9575 4186.3688 694.8617 4169.4728 694.8617 Z"
      stroke="none" fill="#000000" />
  </g>
  <g id="logo" transform="matrix(2.3630664,0,0,2.3630664,0,58.108739)">
    <path id="path0" d="M163.026 60.044 C 159.740 60.223,153.350 60.923,148.826 61.600 C 144.302 62.278,138.819 63.098,136.643 63.422 C 134.467 63.747,131.857 64.380,130.843 64.829 C 129.829 65.278,127.126 66.088,124.836 66.629 C 122.547 67.170,120.086 67.976,119.368 68.420 C 118.650 68.863,116.750 69.673,115.145 70.219 C 113.540 70.765,111.591 71.647,110.813 72.180 C 110.036 72.713,108.410 73.534,107.200 74.005 C 105.990 74.475,104.640 75.190,104.200 75.592 C 103.760 75.995,102.564 76.837,101.542 77.462 C 94.876 81.543,86.774 89.671,81.389 97.681 C 80.397 99.155,79.405 100.473,79.184 100.610 C 78.963 100.746,78.221 101.970,77.535 103.329 C 76.849 104.688,75.891 106.340,75.406 107.000 C 74.921 107.660,74.122 109.220,73.629 110.467 C 73.137 111.714,72.304 113.317,71.778 114.029 C 71.253 114.741,70.526 116.241,70.163 117.362 C 69.800 118.483,69.008 120.300,68.402 121.400 C 67.797 122.500,66.914 124.702,66.441 126.293 C 65.968 127.884,65.226 129.788,64.793 130.523 C 63.509 132.699,63.334 135.235,64.401 136.201 C 65.649 137.330,348.533 137.698,351.505 136.575 C 354.122 135.585,353.993 137.534,354.024 98.726 C 354.055 60.036,354.118 61.143,351.815 60.181 C 350.249 59.526,174.866 59.399,163.026 60.044 M63.836 166.431 L 62.800 167.661 62.800 177.572 C 62.800 187.237,62.823 187.515,63.716 188.841 L 64.632 190.200 207.216 190.400 C 363.222 190.619,351.251 190.777,353.338 188.469 C 354.441 187.249,354.522 168.440,353.429 167.233 C 351.452 165.047,362.427 165.200,207.475 165.200 L 64.871 165.200 63.836 166.431 M65.911 218.287 C 62.959 218.604,62.800 219.192,62.801 229.754 C 62.803 240.217,63.040 241.228,65.609 241.742 C 68.039 242.228,191.082 242.041,193.039 241.548 C 195.936 240.819,196.033 240.407,195.907 229.349 L 195.800 219.886 194.671 219.043 L 193.542 218.200 130.471 218.164 C 95.782 218.144,66.730 218.199,65.911 218.287 M64.921 269.602 C 62.907 270.420,62.731 271.593,62.886 283.136 C 63.032 294.048,63.142 294.927,64.447 295.625 C 65.282 296.072,191.101 296.205,193.463 295.762 C 195.693 295.343,195.787 294.869,195.933 283.200 C 196.075 271.964,195.889 270.640,194.050 269.723 C 193.148 269.274,66.022 269.154,64.921 269.602 M63.970 323.432 L 63.000 324.463 62.872 335.332 C 62.722 348.138,62.865 348.691,66.499 349.300 C 69.064 349.730,193.219 349.488,194.115 349.052 C 195.756 348.251,195.937 347.023,196.009 336.178 C 196.083 325.133,195.904 323.685,194.372 322.906 C 193.613 322.520,179.344 322.411,129.170 322.406 L 64.939 322.400 63.970 323.432"
      stroke="none" fill="#000000" fill-rule="evenodd" />
  </g>
</svg>